# xmcd
#
# Track frame offsets:
# 150
# 12520
# 30735
# 52534
# 71304
# 105010
# 127345
# 135109
# 153093
# 168857
# 181325
# 198740
# 220510
# 229513
# 239899
#
# Disc length: 3549 seconds
#
# Revision: 0
# Processed by: cddbd v1.4PL0 Copyright (c) Steve Scherf et al.
# Submitted via: Audion 3.0.2 (http://www.panic.com/audion/)
#
DISCID=b80ddb0f
DTITLE=Various Artist - In The Film They Made Us a Little More Articulate
DYEAR=1900
DGENRE=
TTITLE0=Weights and Measures - The Weekend is for Making Babies
TTITLE1=Kitchens and Bathrooms - Museum of Steam and Technology
TTITLE2=From Fiction - Riel
TTITLE3=Lou Barlow - None of Your Goddam Bizness
TTITLE4=The Plan - La Vita Repetitiva
TTITLE5=One Candle Power - Ceci N'est Pas un Fille
TTITLE6=North of America - We Had to Call Your Parents
TTITLE7=The City on Film - Bad Liver and a Broken Heart (in Lowell)
TTITLE8=Wintersleep - Sore
TTITLE9=Neil Haverty - Garrick's Sound
TTITLE10=The Creeping Nobodies - Cold Hands
TTITLE11=The Vermicious Knid - Every Bear's Life Guide
TTITLE12=White Star Line - ... and Fine Wine
TTITLE13=Contrived - Get to Your Stations
TTITLE14=Lungbutter - Orbital Form
EXTD=
EXTT0=
EXTT1=
EXTT2=
EXTT3=
EXTT4=
EXTT5=
EXTT6=
EXTT7=
EXTT8=
EXTT9=
EXTT10=
EXTT11=
EXTT12=
EXTT13=
EXTT14=
PLAYORDER=
